<svg xmlns:xlink="http://www.w3.org/1999/xlink" id="SvgjsSvg1297" width="300" height="148" xmlns="http://www.w3.org/2000/svg" version="1.1" xlink="http://www.w3.org/1999/xlink" xmlns:svgjs="http://svgjs.com/svgjs" preserveAspectRatio="xMidYMid meet" viewBox="0 -0.0000014707313766848529 262.1571960449219 146.99998474121094" overflow="visible"><defs id="SvgjsDefs1298"><linearGradient id="SvgjsLinearGradientbCWPQeTb_0" gradientUnits="userSpaceOnUse" x1="13.666999816894542" y1="86" x2="85.66699981689455" y2="13.999999999999993"><stop id="SvgjsStop1301" stop-color="#1ea0e0" offset="0.05"></stop><stop id="SvgjsStop1302" stop-color="#0f5070" offset="0.95"></stop></linearGradient><linearGradient id="SvgjsLinearGradientbCWPQeTb_0" gradientUnits="userSpaceOnUse" x1="13.666999816894542" y1="86" x2="85.66699981689455" y2="13.999999999999993"><stop id="SvgjsStop1301" stop-color="#1ea0e0" offset="0.05"></stop><stop id="SvgjsStop1302" stop-color="#0f5070" offset="0.95"></stop></linearGradient><linearGradient id="SvgjsLinearGradientbCWPQeTb_0" gradientUnits="userSpaceOnUse" x1="13.666999816894542" y1="86" x2="85.66699981689455" y2="13.999999999999993"><stop id="SvgjsStop1301" stop-color="#1ea0e0" offset="0.05"></stop><stop id="SvgjsStop1302" stop-color="#0f5070" offset="0.95"></stop></linearGradient></defs><g id="SvgjsG1299" transform="scale(0.30843474611833827)" opacity="1"><g id="SvgjsG1303" class="ZDVuCjGHk" transform="translate(156.40569849014287, -75.705) scale(5.4075)" light-content="false" non-strokable="false" fill="url(&quot;#SvgjsLinearGradientbCWPQeTb_0&quot;)"><path d="M13.667 14v18l54 54h18V68l-54-54zm0 72h36l-36-36zm36-72l36 36V14z" fill="url(&quot;#SvgjsLinearGradientbCWPQeTb_0&quot;)"></path></g><g id="SvgjsG1304" class="text" transform="translate(424.5899963378906, 476.5999983215332) scale(1)" light-content="false" fill="#242424"><path d="M-381.51 -33.84L-381.51 -43.2L-415.71 -43.2C-418.19 -43.2 -420.29 -42.34 -422.01 -40.62C-423.73 -38.9 -424.59 -36.8 -424.59 -34.32L-424.59 -8.88C-424.59 -6.4 -423.73 -4.3 -422.01 -2.58C-420.29 -0.86 -418.19 0 -415.71 0L-381.51 0L-381.51 -9.36L-415.29 -9.36L-415.29 -33.84Z M-360.51 -43.2C-362.99 -43.2 -365.09 -42.34 -366.81 -40.62C-368.53 -38.9 -369.39 -36.8 -369.39 -34.32L-369.39 -8.88C-369.39 -6.4 -368.53 -4.3 -366.81 -2.58C-365.09 -0.86 -362.99 0 -360.51 0L-335.07 0C-332.63 0 -330.54 -0.87 -328.8 -2.61C-327.06 -4.35 -326.19 -6.44 -326.19 -8.88L-326.19 -34.32C-326.19 -36.76 -327.06 -38.85 -328.8 -40.59C-330.54 -42.33 -332.63 -43.2 -335.07 -43.2ZM-360.09 -33.84L-335.61 -33.84L-335.61 -9.36L-360.09 -9.36Z M-279.81 -14.4L-303.99 -43.2L-313.59 -43.2L-313.59 0L-304.29 0L-304.29 -28.92L-279.99 0L-270.39 0L-270.39 -43.2L-279.81 -43.2Z M-259.83 -43.2L-259.83 -33.84L-242.91 -33.84L-242.91 0L-233.55 0L-233.55 -33.84L-216.63 -33.84L-216.63 -43.2Z M-166.11 -43.2L-206.01 -43.2L-206.01 0L-166.11 0L-166.11 -9.36L-196.59 -9.36L-196.59 -16.92L-172.05 -16.92L-172.05 -26.28L-196.59 -26.28L-196.59 -33.84L-166.11 -33.84Z M-120.39 -14.4L-144.57 -43.2L-154.17 -43.2L-154.17 0L-144.87 0L-144.87 -28.92L-120.57 0L-110.97 0L-110.97 -43.2L-120.39 -43.2Z M-100.41 -43.2L-100.41 -33.84L-83.49 -33.84L-83.49 0L-74.13 0L-74.13 -33.84L-57.21 -33.84L-57.21 -43.2Z M21.69 -33.84L21.69 -43.2L-12.51 -43.2C-14.99 -43.2 -17.09 -42.34 -18.81 -40.62C-20.53 -38.9 -21.39 -36.8 -21.39 -34.32L-21.39 -8.88C-21.39 -6.4 -20.53 -4.3 -18.81 -2.58C-17.09 -0.86 -14.99 0 -12.51 0L21.69 0L21.69 -9.36L-12.09 -9.36L-12.09 -33.84Z M68.79 -43.2L68.79 -26.28L43.29 -26.28L43.29 -43.2L33.99 -43.2L33.99 0L43.29 0L43.29 -16.92L68.79 -16.92L68.79 0L78.09 0L78.09 -43.2Z M134.13 -34.26C134.13 -36.7 133.25 -38.79 131.49 -40.53C129.73 -42.27 127.63 -43.14 125.19 -43.14L90.93 -43.14L90.93 0L100.23 0L100.23 -13.86C100.27 -13.82 100.33 -13.8 100.41 -13.8C100.41 -14.04 100.35 -14.16 100.23 -14.16L112.59 -14.22L124.53 0L134.13 0L134.13 -3.18L124.77 -14.22L125.19 -14.22C127.63 -14.22 129.73 -15.09 131.49 -16.83C133.25 -18.57 134.13 -20.66 134.13 -23.1ZM100.23 -33.84L124.71 -33.84L124.71 -23.58L100.23 -23.58Z M155.25 -43.2C152.77 -43.2 150.67 -42.34 148.95 -40.62C147.23 -38.9 146.37 -36.8 146.37 -34.32L146.37 -8.88C146.37 -6.4 147.23 -4.3 148.95 -2.58C150.67 -0.86 152.77 0 155.25 0L180.69 0C183.13 0 185.22 -0.87 186.96 -2.61C188.7 -4.35 189.57 -6.44 189.57 -8.88L189.57 -34.32C189.57 -36.76 188.7 -38.85 186.96 -40.59C185.22 -42.33 183.13 -43.2 180.69 -43.2ZM155.67 -33.84L180.15 -33.84L180.15 -9.36L155.67 -9.36Z M235.95 -14.4L211.77 -43.2L202.17 -43.2L202.17 0L211.47 0L211.47 -28.92L235.77 0L245.37 0L245.37 -43.2L235.95 -43.2Z M258.15 0L267.51 0L267.51 -43.2L258.15 -43.2Z M320.37 -33.84L320.37 -43.2L286.17 -43.2C283.69 -43.2 281.59 -42.34 279.87 -40.62C278.15 -38.9 277.29 -36.8 277.29 -34.32L277.29 -8.88C277.29 -6.4 278.15 -4.3 279.87 -2.58C281.59 -0.86 283.69 0 286.17 0L320.37 0L320.37 -9.36L286.59 -9.36L286.59 -33.84Z M332.67 0L375.87 0L375.87 -9.36L341.97 -9.36L341.97 -43.26L332.67 -43.26Z M425.37 -43.2L385.47 -43.2L385.47 0L425.37 0L425.37 -9.36L394.89 -9.36L394.89 -16.92L419.43 -16.92L419.43 -26.28L394.89 -26.28L394.89 -33.84L425.37 -33.84Z" fill="#242424"></path></g></g></svg>